<svg width="250" height="250" viewBox="0 0 250 250" fill="none" xmlns="http://www.w3.org/2000/svg">
<rect width="250" height="250" rx="6" fill="#EEF2FF"/>
<g clip-path="url(#clip0_149_999)">
<g clip-path="url(#clip1_149_999)">
<rect x="23" y="31" width="204" height="188" rx="8" fill="white"/>
<rect x="18.4629" y="31" width="213.303" height="27.187" fill="#DED7FF"/>
<path d="M35.6808 46.5935V41.6935H37.5008C37.8462 41.6935 38.1518 41.7635 38.4178 41.9035C38.6838 42.0388 38.8915 42.2302 39.0408 42.4775C39.1902 42.7202 39.2648 43.0025 39.2648 43.3245C39.2648 43.6418 39.1925 43.9242 39.0478 44.1715C38.9032 44.4188 38.7048 44.6148 38.4528 44.7595C38.2008 44.8995 37.9092 44.9695 37.5778 44.9695H36.6398V46.5935H35.6808ZM36.6398 44.0875H37.5568C37.7715 44.0875 37.9465 44.0175 38.0818 43.8775C38.2218 43.7328 38.2918 43.5485 38.2918 43.3245C38.2918 43.1005 38.2148 42.9185 38.0608 42.7785C37.9115 42.6385 37.7178 42.5685 37.4798 42.5685H36.6398V44.0875ZM41.8112 46.5935L41.7832 45.8865V44.8225C41.7832 44.6125 41.7599 44.4328 41.7132 44.2835C41.6712 44.1342 41.6012 44.0198 41.5032 43.9405C41.4099 43.8565 41.2816 43.8145 41.1182 43.8145C40.9689 43.8145 40.8336 43.8472 40.7122 43.9125C40.5909 43.9778 40.4882 44.0782 40.4042 44.2135L39.5922 43.9335C39.6576 43.7842 39.7532 43.6395 39.8792 43.4995C40.0052 43.3548 40.1686 43.2382 40.3692 43.1495C40.5746 43.0562 40.8242 43.0095 41.1182 43.0095C41.4729 43.0095 41.7669 43.0772 42.0002 43.2125C42.2382 43.3478 42.4132 43.5392 42.5252 43.7865C42.6419 44.0292 42.6979 44.3185 42.6932 44.6545L42.6722 46.5935H41.8112ZM40.8312 46.6775C40.4112 46.6775 40.0846 46.5842 39.8512 46.3975C39.6226 46.2108 39.5082 45.9472 39.5082 45.6065C39.5082 45.2332 39.6319 44.9532 39.8792 44.7665C40.1312 44.5752 40.4836 44.4795 40.9362 44.4795H41.8252V45.1655H41.2582C40.9549 45.1655 40.7449 45.2028 40.6282 45.2775C40.5116 45.3475 40.4532 45.4478 40.4532 45.5785C40.4532 45.6812 40.4999 45.7628 40.5932 45.8235C40.6866 45.8795 40.8172 45.9075 40.9852 45.9075C41.1392 45.9075 41.2746 45.8725 41.3912 45.8025C41.5126 45.7278 41.6082 45.6345 41.6782 45.5225C41.7482 45.4058 41.7832 45.2868 41.7832 45.1655H42.0072C42.0072 45.6415 41.9162 46.0125 41.7342 46.2785C41.5569 46.5445 41.2559 46.6775 40.8312 46.6775ZM45.0047 48.0845C44.7387 48.0845 44.503 48.0658 44.2977 48.0285C44.0923 47.9912 43.9197 47.9422 43.7797 47.8815C43.6397 47.8208 43.5253 47.7602 43.4367 47.6995L43.8007 46.9575C43.866 46.9948 43.9523 47.0368 44.0597 47.0835C44.167 47.1348 44.2953 47.1768 44.4447 47.2095C44.594 47.2468 44.7667 47.2655 44.9627 47.2655C45.1493 47.2655 45.3127 47.2282 45.4527 47.1535C45.5973 47.0835 45.7093 46.9715 45.7887 46.8175C45.8727 46.6682 45.9147 46.4768 45.9147 46.2435V43.0935H46.8387V46.2155C46.8387 46.6075 46.764 46.9435 46.6147 47.2235C46.4653 47.5082 46.253 47.7228 45.9777 47.8675C45.707 48.0122 45.3827 48.0845 45.0047 48.0845ZM44.8227 46.4955C44.5007 46.4955 44.2207 46.4255 43.9827 46.2855C43.7493 46.1455 43.5673 45.9495 43.4367 45.6975C43.306 45.4455 43.2407 45.1468 43.2407 44.8015C43.2407 44.4375 43.306 44.1225 43.4367 43.8565C43.5673 43.5858 43.7493 43.3782 43.9827 43.2335C44.2207 43.0842 44.5007 43.0095 44.8227 43.0095C45.1027 43.0095 45.3453 43.0842 45.5507 43.2335C45.756 43.3782 45.9147 43.5858 46.0267 43.8565C46.1387 44.1272 46.1947 44.4492 46.1947 44.8225C46.1947 45.1585 46.1387 45.4525 46.0267 45.7045C45.9147 45.9565 45.756 46.1525 45.5507 46.2925C45.3453 46.4278 45.1027 46.4955 44.8227 46.4955ZM45.0887 45.7185C45.2473 45.7185 45.385 45.6788 45.5017 45.5995C45.623 45.5155 45.7163 45.4035 45.7817 45.2635C45.847 45.1188 45.8797 44.9555 45.8797 44.7735C45.8797 44.5868 45.8447 44.4235 45.7747 44.2835C45.7093 44.1435 45.616 44.0338 45.4947 43.9545C45.378 43.8752 45.2403 43.8355 45.0817 43.8355C44.9183 43.8355 44.7737 43.8752 44.6477 43.9545C44.5217 44.0338 44.4237 44.1435 44.3537 44.2835C44.2837 44.4235 44.2463 44.5868 44.2417 44.7735C44.2463 44.9555 44.2837 45.1188 44.3537 45.2635C44.4237 45.4035 44.5217 45.5155 44.6477 45.5995C44.7783 45.6788 44.9253 45.7185 45.0887 45.7185ZM49.2158 46.6775C48.8704 46.6775 48.5648 46.6005 48.2988 46.4465C48.0328 46.2878 47.8228 46.0708 47.6688 45.7955C47.5194 45.5202 47.4448 45.2028 47.4448 44.8435C47.4448 44.4842 47.5218 44.1668 47.6758 43.8915C47.8344 43.6162 48.0491 43.4015 48.3198 43.2475C48.5951 43.0888 48.9101 43.0095 49.2648 43.0095C49.5728 43.0095 49.8551 43.0912 50.1118 43.2545C50.3731 43.4132 50.5808 43.6488 50.7348 43.9615C50.8934 44.2695 50.9728 44.6452 50.9728 45.0885H48.3198L48.4038 45.0045C48.4038 45.1772 48.4458 45.3288 48.5298 45.4595C48.6184 45.5855 48.7304 45.6835 48.8658 45.7535C49.0058 45.8188 49.1551 45.8515 49.3138 45.8515C49.5051 45.8515 49.6614 45.8118 49.7828 45.7325C49.9041 45.6485 49.9974 45.5412 50.0628 45.4105L50.8888 45.7325C50.7908 45.9285 50.6624 46.0988 50.5038 46.2435C50.3498 46.3835 50.1654 46.4908 49.9508 46.5655C49.7361 46.6402 49.4911 46.6775 49.2158 46.6775ZM48.4528 44.4865L48.3688 44.4025H50.0558L49.9788 44.4865C49.9788 44.3185 49.9391 44.1855 49.8598 44.0875C49.7804 43.9848 49.6824 43.9102 49.5658 43.8635C49.4538 43.8168 49.3441 43.7935 49.2368 43.7935C49.1294 43.7935 49.0151 43.8168 48.8938 43.8635C48.7724 43.9102 48.6674 43.9848 48.5788 44.0875C48.4948 44.1855 48.4528 44.3185 48.4528 44.4865ZM52.8187 46.6775C52.5947 46.6775 52.3847 46.6448 52.1887 46.5795C51.9927 46.5095 51.8201 46.4115 51.6707 46.2855C51.5214 46.1548 51.4047 45.9962 51.3207 45.8095L52.1117 45.4455C52.1817 45.5575 52.2774 45.6555 52.3987 45.7395C52.5201 45.8188 52.6601 45.8585 52.8187 45.8585C52.9727 45.8585 53.0917 45.8375 53.1757 45.7955C53.2597 45.7488 53.3017 45.6835 53.3017 45.5995C53.3017 45.5155 53.2667 45.4548 53.1967 45.4175C53.1314 45.3755 53.0404 45.3405 52.9237 45.3125L52.6017 45.2285C52.2657 45.1398 51.9997 44.9998 51.8037 44.8085C51.6124 44.6125 51.5167 44.3885 51.5167 44.1365C51.5167 43.7772 51.6311 43.4995 51.8597 43.3035C52.0931 43.1075 52.4221 43.0095 52.8467 43.0095C53.0661 43.0095 53.2691 43.0422 53.4557 43.1075C53.6471 43.1728 53.8104 43.2638 53.9457 43.3805C54.0811 43.4972 54.1744 43.6325 54.2257 43.7865L53.4627 44.1365C53.4301 44.0432 53.3507 43.9685 53.2247 43.9125C53.0987 43.8518 52.9727 43.8215 52.8467 43.8215C52.7207 43.8215 52.6227 43.8495 52.5527 43.9055C52.4874 43.9568 52.4547 44.0292 52.4547 44.1225C52.4547 44.1832 52.4874 44.2345 52.5527 44.2765C52.6181 44.3138 52.7114 44.3465 52.8327 44.3745L53.2877 44.4865C53.5164 44.5425 53.6984 44.6335 53.8337 44.7595C53.9737 44.8808 54.0741 45.0185 54.1347 45.1725C54.2001 45.3218 54.2327 45.4688 54.2327 45.6135C54.2327 45.8235 54.1697 46.0102 54.0437 46.1735C53.9224 46.3322 53.7544 46.4558 53.5397 46.5445C53.3297 46.6332 53.0894 46.6775 52.8187 46.6775Z" fill="black"/>
<path d="M94.5006 46.5935V41.6935H95.4596V46.5935H94.5006ZM96.391 46.5935V43.0935H97.259L97.315 43.7375V46.5935H96.391ZM98.708 46.5935V44.8015H99.632V46.5935H98.708ZM98.708 44.8015C98.708 44.5635 98.68 44.3792 98.624 44.2485C98.5727 44.1178 98.498 44.0245 98.4 43.9685C98.302 43.9078 98.1877 43.8775 98.057 43.8775C97.819 43.8728 97.6347 43.9452 97.504 44.0945C97.378 44.2438 97.315 44.4655 97.315 44.7595H97.007C97.007 44.3862 97.0607 44.0712 97.168 43.8145C97.28 43.5532 97.434 43.3548 97.63 43.2195C97.8307 43.0795 98.064 43.0095 98.33 43.0095C98.6053 43.0095 98.841 43.0655 99.037 43.1775C99.233 43.2895 99.3823 43.4645 99.485 43.7025C99.5877 43.9358 99.6367 44.2392 99.632 44.6125V44.8015H98.708ZM101.812 46.6775C101.424 46.6775 101.13 46.5818 100.93 46.3905C100.734 46.1992 100.636 45.9262 100.636 45.5715V42.0015H101.56V45.3685C101.56 45.5178 101.592 45.6322 101.658 45.7115C101.723 45.7862 101.819 45.8235 101.945 45.8235C101.991 45.8235 102.043 45.8142 102.099 45.7955C102.155 45.7722 102.213 45.7395 102.274 45.6975L102.596 46.3905C102.484 46.4745 102.358 46.5422 102.218 46.5935C102.082 46.6495 101.947 46.6775 101.812 46.6775ZM100.069 43.8775V43.0935H102.435V43.8775H100.069ZM104.706 46.6775C104.361 46.6775 104.055 46.6005 103.789 46.4465C103.523 46.2878 103.313 46.0708 103.159 45.7955C103.01 45.5202 102.935 45.2028 102.935 44.8435C102.935 44.4842 103.012 44.1668 103.166 43.8915C103.325 43.6162 103.54 43.4015 103.81 43.2475C104.086 43.0888 104.401 43.0095 104.755 43.0095C105.063 43.0095 105.346 43.0912 105.602 43.2545C105.864 43.4132 106.071 43.6488 106.225 43.9615C106.384 44.2695 106.463 44.6452 106.463 45.0885H103.81L103.894 45.0045C103.894 45.1772 103.936 45.3288 104.02 45.4595C104.109 45.5855 104.221 45.6835 104.356 45.7535C104.496 45.8188 104.646 45.8515 104.804 45.8515C104.996 45.8515 105.152 45.8118 105.273 45.7325C105.395 45.6485 105.488 45.5412 105.553 45.4105L106.379 45.7325C106.281 45.9285 106.153 46.0988 105.994 46.2435C105.84 46.3835 105.656 46.4908 105.441 46.5655C105.227 46.6402 104.982 46.6775 104.706 46.6775ZM103.943 44.4865L103.859 44.4025H105.546L105.469 44.4865C105.469 44.3185 105.43 44.1855 105.35 44.0875C105.271 43.9848 105.173 43.9102 105.056 43.8635C104.944 43.8168 104.835 43.7935 104.727 43.7935C104.62 43.7935 104.506 43.8168 104.384 43.8635C104.263 43.9102 104.158 43.9848 104.069 44.0875C103.985 44.1855 103.943 44.3185 103.943 44.4865ZM107.651 44.7525C107.651 44.3745 107.724 44.0618 107.868 43.8145C108.018 43.5672 108.207 43.3828 108.435 43.2615C108.669 43.1402 108.911 43.0795 109.163 43.0795V43.9755C108.949 43.9755 108.746 44.0012 108.554 44.0525C108.368 44.1038 108.216 44.1878 108.099 44.3045C107.983 44.4212 107.924 44.5705 107.924 44.7525H107.651ZM107 46.5935V43.0935H107.924V46.5935H107ZM109.653 46.5935V43.0935H110.521L110.577 43.7375V46.5935H109.653ZM111.97 46.5935V44.8015H112.894V46.5935H111.97ZM111.97 44.8015C111.97 44.5635 111.942 44.3792 111.886 44.2485C111.834 44.1178 111.76 44.0245 111.662 43.9685C111.564 43.9078 111.449 43.8775 111.319 43.8775C111.081 43.8728 110.896 43.9452 110.766 44.0945C110.64 44.2438 110.577 44.4655 110.577 44.7595H110.269C110.269 44.3862 110.322 44.0712 110.43 43.8145C110.542 43.5532 110.696 43.3548 110.892 43.2195C111.092 43.0795 111.326 43.0095 111.592 43.0095C111.867 43.0095 112.103 43.0655 112.299 43.1775C112.495 43.2895 112.644 43.4645 112.747 43.7025C112.849 43.9358 112.898 44.2392 112.894 44.6125V44.8015H111.97ZM115.745 46.5935L115.717 45.8865V44.8225C115.717 44.6125 115.694 44.4328 115.647 44.2835C115.605 44.1342 115.535 44.0198 115.437 43.9405C115.344 43.8565 115.216 43.8145 115.052 43.8145C114.903 43.8145 114.768 43.8472 114.646 43.9125C114.525 43.9778 114.422 44.0782 114.338 44.2135L113.526 43.9335C113.592 43.7842 113.687 43.6395 113.813 43.4995C113.939 43.3548 114.103 43.2382 114.303 43.1495C114.509 43.0562 114.758 43.0095 115.052 43.0095C115.407 43.0095 115.701 43.0772 115.934 43.2125C116.172 43.3478 116.347 43.5392 116.459 43.7865C116.576 44.0292 116.632 44.3185 116.627 44.6545L116.606 46.5935H115.745ZM114.765 46.6775C114.345 46.6775 114.019 46.5842 113.785 46.3975C113.557 46.2108 113.442 45.9472 113.442 45.6065C113.442 45.2332 113.566 44.9532 113.813 44.7665C114.065 44.5752 114.418 44.4795 114.87 44.4795H115.759V45.1655H115.192C114.889 45.1655 114.679 45.2028 114.562 45.2775C114.446 45.3475 114.387 45.4478 114.387 45.5785C114.387 45.6812 114.434 45.7628 114.527 45.8235C114.621 45.8795 114.751 45.9075 114.919 45.9075C115.073 45.9075 115.209 45.8725 115.325 45.8025C115.447 45.7278 115.542 45.6345 115.612 45.5225C115.682 45.4058 115.717 45.2868 115.717 45.1655H115.941C115.941 45.6415 115.85 46.0125 115.668 46.2785C115.491 46.5445 115.19 46.6775 114.765 46.6775ZM117.364 46.5935V41.6935H118.288V46.5935H117.364ZM120.887 46.5935V41.6935H121.846V45.7185H124.002V46.5935H120.887ZM124.57 46.5935V43.0935H125.494V46.5935H124.57ZM125.032 42.5265C124.892 42.5265 124.768 42.4752 124.661 42.3725C124.554 42.2652 124.5 42.1392 124.5 41.9945C124.5 41.8498 124.554 41.7262 124.661 41.6235C124.768 41.5162 124.892 41.4625 125.032 41.4625C125.177 41.4625 125.3 41.5162 125.403 41.6235C125.51 41.7262 125.564 41.8498 125.564 41.9945C125.564 42.1392 125.51 42.2652 125.403 42.3725C125.3 42.4752 125.177 42.5265 125.032 42.5265ZM126.346 46.5935V43.0935H127.214L127.27 43.7375V46.5935H126.346ZM128.663 46.5935V44.8015H129.587V46.5935H128.663ZM128.663 44.8015C128.663 44.5635 128.635 44.3792 128.579 44.2485C128.528 44.1178 128.453 44.0245 128.355 43.9685C128.257 43.9078 128.143 43.8775 128.012 43.8775C127.774 43.8728 127.59 43.9452 127.459 44.0945C127.333 44.2438 127.27 44.4655 127.27 44.7595H126.962C126.962 44.3862 127.016 44.0712 127.123 43.8145C127.235 43.5532 127.389 43.3548 127.585 43.2195C127.786 43.0795 128.019 43.0095 128.285 43.0095C128.56 43.0095 128.796 43.0655 128.992 43.1775C129.188 43.2895 129.337 43.4645 129.44 43.7025C129.543 43.9358 129.592 44.2392 129.587 44.6125V44.8015H128.663ZM131.207 45.7045L130.654 45.0675L132.446 43.0935H133.545L131.207 45.7045ZM130.325 46.5935V41.6935H131.249V46.5935H130.325ZM132.565 46.5935L131.403 44.8995L132.005 44.2625L133.65 46.5935H132.565ZM135.4 46.6775C135.176 46.6775 134.966 46.6448 134.77 46.5795C134.574 46.5095 134.402 46.4115 134.252 46.2855C134.103 46.1548 133.986 45.9962 133.902 45.8095L134.693 45.4455C134.763 45.5575 134.859 45.6555 134.98 45.7395C135.102 45.8188 135.242 45.8585 135.4 45.8585C135.554 45.8585 135.673 45.8375 135.757 45.7955C135.841 45.7488 135.883 45.6835 135.883 45.5995C135.883 45.5155 135.848 45.4548 135.778 45.4175C135.713 45.3755 135.622 45.3405 135.505 45.3125L135.183 45.2285C134.847 45.1398 134.581 44.9998 134.385 44.8085C134.194 44.6125 134.098 44.3885 134.098 44.1365C134.098 43.7772 134.213 43.4995 134.441 43.3035C134.675 43.1075 135.004 43.0095 135.428 43.0095C135.648 43.0095 135.851 43.0422 136.037 43.1075C136.229 43.1728 136.392 43.2638 136.527 43.3805C136.663 43.4972 136.756 43.6325 136.807 43.7865L136.044 44.1365C136.012 44.0432 135.932 43.9685 135.806 43.9125C135.68 43.8518 135.554 43.8215 135.428 43.8215C135.302 43.8215 135.204 43.8495 135.134 43.9055C135.069 43.9568 135.036 44.0292 135.036 44.1225C135.036 44.1832 135.069 44.2345 135.134 44.2765C135.2 44.3138 135.293 44.3465 135.414 44.3745L135.869 44.4865C136.098 44.5425 136.28 44.6335 136.415 44.7595C136.555 44.8808 136.656 45.0185 136.716 45.1725C136.782 45.3218 136.814 45.4688 136.814 45.6135C136.814 45.8235 136.751 46.0102 136.625 46.1735C136.504 46.3322 136.336 46.4558 136.121 46.5445C135.911 46.6332 135.671 46.6775 135.4 46.6775Z" fill="black"/>
<path d="M169.768 46.5935V41.6935H172.869V42.5685H170.727V43.6815H172.575V44.5355H170.727V45.7185H172.897V46.5935H169.768ZM173.428 46.5935L174.863 44.5915L175.864 43.0935H176.956L175.563 45.0465L174.534 46.5935H173.428ZM175.941 46.5935L174.926 45.0465L173.519 43.0935H174.611L175.612 44.5915L177.04 46.5935H175.941ZM178.952 46.6775C178.565 46.6775 178.271 46.5818 178.07 46.3905C177.874 46.1992 177.776 45.9262 177.776 45.5715V42.0015H178.7V45.3685C178.7 45.5178 178.733 45.6322 178.798 45.7115C178.863 45.7862 178.959 45.8235 179.085 45.8235C179.132 45.8235 179.183 45.8142 179.239 45.7955C179.295 45.7722 179.353 45.7395 179.414 45.6975L179.736 46.3905C179.624 46.4745 179.498 46.5422 179.358 46.5935C179.223 46.6495 179.087 46.6775 178.952 46.6775ZM177.209 43.8775V43.0935H179.575V43.8775H177.209ZM181.847 46.6775C181.502 46.6775 181.196 46.6005 180.93 46.4465C180.664 46.2878 180.454 46.0708 180.3 45.7955C180.151 45.5202 180.076 45.2028 180.076 44.8435C180.076 44.4842 180.153 44.1668 180.307 43.8915C180.466 43.6162 180.68 43.4015 180.951 43.2475C181.226 43.0888 181.541 43.0095 181.896 43.0095C182.204 43.0095 182.486 43.0912 182.743 43.2545C183.004 43.4132 183.212 43.6488 183.366 43.9615C183.525 44.2695 183.604 44.6452 183.604 45.0885H180.951L181.035 45.0045C181.035 45.1772 181.077 45.3288 181.161 45.4595C181.25 45.5855 181.362 45.6835 181.497 45.7535C181.637 45.8188 181.786 45.8515 181.945 45.8515C182.136 45.8515 182.293 45.8118 182.414 45.7325C182.535 45.6485 182.629 45.5412 182.694 45.4105L183.52 45.7325C183.422 45.9285 183.294 46.0988 183.135 46.2435C182.981 46.3835 182.797 46.4908 182.582 46.5655C182.367 46.6402 182.122 46.6775 181.847 46.6775ZM181.084 44.4865L181 44.4025H182.687L182.61 44.4865C182.61 44.3185 182.57 44.1855 182.491 44.0875C182.412 43.9848 182.314 43.9102 182.197 43.8635C182.085 43.8168 181.975 43.7935 181.868 43.7935C181.761 43.7935 181.646 43.8168 181.525 43.8635C181.404 43.9102 181.299 43.9848 181.21 44.0875C181.126 44.1855 181.084 44.3185 181.084 44.4865ZM184.792 44.7525C184.792 44.3745 184.864 44.0618 185.009 43.8145C185.158 43.5672 185.347 43.3828 185.576 43.2615C185.809 43.1402 186.052 43.0795 186.304 43.0795V43.9755C186.089 43.9755 185.886 44.0012 185.695 44.0525C185.508 44.1038 185.356 44.1878 185.24 44.3045C185.123 44.4212 185.065 44.5705 185.065 44.7525H184.792ZM184.141 46.5935V43.0935H185.065V46.5935H184.141ZM186.793 46.5935V43.0935H187.661L187.717 43.7375V46.5935H186.793ZM189.11 46.5935V44.8015H190.034V46.5935H189.11ZM189.11 44.8015C189.11 44.5635 189.082 44.3792 189.026 44.2485C188.975 44.1178 188.9 44.0245 188.802 43.9685C188.704 43.9078 188.59 43.8775 188.459 43.8775C188.221 43.8728 188.037 43.9452 187.906 44.0945C187.78 44.2438 187.717 44.4655 187.717 44.7595H187.409C187.409 44.3862 187.463 44.0712 187.57 43.8145C187.682 43.5532 187.836 43.3548 188.032 43.2195C188.233 43.0795 188.466 43.0095 188.732 43.0095C189.007 43.0095 189.243 43.0655 189.439 43.1775C189.635 43.2895 189.784 43.4645 189.887 43.7025C189.99 43.9358 190.039 44.2392 190.034 44.6125V44.8015H189.11ZM192.886 46.5935L192.858 45.8865V44.8225C192.858 44.6125 192.834 44.4328 192.788 44.2835C192.746 44.1342 192.676 44.0198 192.578 43.9405C192.484 43.8565 192.356 43.8145 192.193 43.8145C192.043 43.8145 191.908 43.8472 191.787 43.9125C191.665 43.9778 191.563 44.0782 191.479 44.2135L190.667 43.9335C190.732 43.7842 190.828 43.6395 190.954 43.4995C191.08 43.3548 191.243 43.2382 191.444 43.1495C191.649 43.0562 191.899 43.0095 192.193 43.0095C192.547 43.0095 192.841 43.0772 193.075 43.2125C193.313 43.3478 193.488 43.5392 193.6 43.7865C193.716 44.0292 193.772 44.3185 193.768 44.6545L193.747 46.5935H192.886ZM191.906 46.6775C191.486 46.6775 191.159 46.5842 190.926 46.3975C190.697 46.2108 190.583 45.9472 190.583 45.6065C190.583 45.2332 190.706 44.9532 190.954 44.7665C191.206 44.5752 191.558 44.4795 192.011 44.4795H192.9V45.1655H192.333C192.029 45.1655 191.819 45.2028 191.703 45.2775C191.586 45.3475 191.528 45.4478 191.528 45.5785C191.528 45.6812 191.574 45.7628 191.668 45.8235C191.761 45.8795 191.892 45.9075 192.06 45.9075C192.214 45.9075 192.349 45.8725 192.466 45.8025C192.587 45.7278 192.683 45.6345 192.753 45.5225C192.823 45.4058 192.858 45.2868 192.858 45.1655H193.082C193.082 45.6415 192.991 46.0125 192.809 46.2785C192.631 46.5445 192.33 46.6775 191.906 46.6775ZM194.504 46.5935V41.6935H195.428V46.5935H194.504ZM198.028 46.5935V41.6935H198.987V45.7185H201.143V46.5935H198.028ZM201.71 46.5935V43.0935H202.634V46.5935H201.71ZM202.172 42.5265C202.032 42.5265 201.909 42.4752 201.801 42.3725C201.694 42.2652 201.64 42.1392 201.64 41.9945C201.64 41.8498 201.694 41.7262 201.801 41.6235C201.909 41.5162 202.032 41.4625 202.172 41.4625C202.317 41.4625 202.441 41.5162 202.543 41.6235C202.651 41.7262 202.704 41.8498 202.704 41.9945C202.704 42.1392 202.651 42.2652 202.543 42.3725C202.441 42.4752 202.317 42.5265 202.172 42.5265ZM203.487 46.5935V43.0935H204.355L204.411 43.7375V46.5935H203.487ZM205.804 46.5935V44.8015H206.728V46.5935H205.804ZM205.804 44.8015C205.804 44.5635 205.776 44.3792 205.72 44.2485C205.668 44.1178 205.594 44.0245 205.496 43.9685C205.398 43.9078 205.283 43.8775 205.153 43.8775C204.915 43.8728 204.73 43.9452 204.6 44.0945C204.474 44.2438 204.411 44.4655 204.411 44.7595H204.103C204.103 44.3862 204.156 44.0712 204.264 43.8145C204.376 43.5532 204.53 43.3548 204.726 43.2195C204.926 43.0795 205.16 43.0095 205.426 43.0095C205.701 43.0095 205.937 43.0655 206.133 43.1775C206.329 43.2895 206.478 43.4645 206.581 43.7025C206.683 43.9358 206.732 44.2392 206.728 44.6125V44.8015H205.804ZM208.347 45.7045L207.794 45.0675L209.586 43.0935H210.685L208.347 45.7045ZM207.465 46.5935V41.6935H208.389V46.5935H207.465ZM209.705 46.5935L208.543 44.8995L209.145 44.2625L210.79 46.5935H209.705ZM212.541 46.6775C212.317 46.6775 212.107 46.6448 211.911 46.5795C211.715 46.5095 211.542 46.4115 211.393 46.2855C211.243 46.1548 211.127 45.9962 211.043 45.8095L211.834 45.4455C211.904 45.5575 211.999 45.6555 212.121 45.7395C212.242 45.8188 212.382 45.8585 212.541 45.8585C212.695 45.8585 212.814 45.8375 212.898 45.7955C212.982 45.7488 213.024 45.6835 213.024 45.5995C213.024 45.5155 212.989 45.4548 212.919 45.4175C212.853 45.3755 212.762 45.3405 212.646 45.3125L212.324 45.2285C211.988 45.1398 211.722 44.9998 211.526 44.8085C211.334 44.6125 211.239 44.3885 211.239 44.1365C211.239 43.7772 211.353 43.4995 211.582 43.3035C211.815 43.1075 212.144 43.0095 212.569 43.0095C212.788 43.0095 212.991 43.0422 213.178 43.1075C213.369 43.1728 213.532 43.2638 213.668 43.3805C213.803 43.4972 213.896 43.6325 213.948 43.7865L213.185 44.1365C213.152 44.0432 213.073 43.9685 212.947 43.9125C212.821 43.8518 212.695 43.8215 212.569 43.8215C212.443 43.8215 212.345 43.8495 212.275 43.9055C212.209 43.9568 212.177 44.0292 212.177 44.1225C212.177 44.1832 212.209 44.2345 212.275 44.2765C212.34 44.3138 212.433 44.3465 212.555 44.3745L213.01 44.4865C213.238 44.5425 213.42 44.6335 213.556 44.7595C213.696 44.8808 213.796 45.0185 213.857 45.1725C213.922 45.3218 213.955 45.4688 213.955 45.6135C213.955 45.8235 213.892 46.0102 213.766 46.1735C213.644 46.3322 213.476 46.4558 213.262 46.5445C213.052 46.6332 212.811 46.6775 212.541 46.6775Z" fill="black"/>
<rect x="35.1488" y="75.9474" width="49.0813" height="7.1051" rx="3.55255" fill="#ECE8FF"/>
<rect x="35.1488" y="103.947" width="49.0813" height="7.1051" rx="3.55255" fill="#ECE8FF"/>
<rect x="35.1488" y="131.947" width="49.0813" height="7.1051" rx="3.55255" fill="#ECE8FF"/>
<rect x="35.1488" y="159.947" width="49.0813" height="7.1051" rx="3.55255" fill="#ECE8FF"/>
<rect x="35.1488" y="187.947" width="49.0813" height="7.1051" rx="3.55255" fill="#ECE8FF"/>
<path d="M109.826 81.5V80.793C109.826 80.6577 109.868 80.5083 109.952 80.345C110.036 80.1817 110.152 80.0183 110.302 79.855C110.451 79.6917 110.626 79.54 110.827 79.4L111.569 78.868C111.671 78.798 111.767 78.7187 111.856 78.63C111.949 78.5413 112.024 78.4457 112.08 78.343C112.14 78.2357 112.171 78.133 112.171 78.035C112.171 77.9137 112.14 77.804 112.08 77.706C112.024 77.608 111.94 77.531 111.828 77.475C111.716 77.419 111.578 77.391 111.415 77.391C111.275 77.391 111.149 77.419 111.037 77.475C110.929 77.531 110.841 77.6057 110.771 77.699C110.701 77.7923 110.652 77.8927 110.624 78L109.637 77.832C109.683 77.5987 109.784 77.3817 109.938 77.181C110.092 76.9803 110.292 76.8193 110.54 76.698C110.792 76.572 111.076 76.509 111.394 76.509C111.758 76.509 112.07 76.5743 112.332 76.705C112.593 76.8357 112.794 77.0153 112.934 77.244C113.078 77.468 113.151 77.7293 113.151 78.028C113.151 78.3313 113.067 78.602 112.899 78.84C112.735 79.0733 112.509 79.2927 112.22 79.498L111.555 79.981C111.419 80.0743 111.303 80.177 111.205 80.289C111.107 80.401 111.032 80.5247 110.981 80.66H113.214V81.5H109.826ZM115.489 76.523C115.821 76.523 116.101 76.5837 116.329 76.705C116.563 76.8217 116.752 76.985 116.896 77.195C117.046 77.405 117.153 77.65 117.218 77.93C117.288 78.2053 117.323 78.5017 117.323 78.819C117.323 79.197 117.284 79.554 117.204 79.89C117.125 80.2213 117.004 80.5153 116.84 80.772C116.682 81.024 116.476 81.2247 116.224 81.374C115.972 81.5187 115.669 81.591 115.314 81.591C115.058 81.591 114.806 81.5537 114.558 81.479C114.316 81.3997 114.096 81.2923 113.9 81.157L114.369 80.457C114.519 80.555 114.675 80.6297 114.838 80.681C115.006 80.7277 115.158 80.751 115.293 80.751C115.657 80.751 115.942 80.5923 116.147 80.275C116.357 79.953 116.453 79.4513 116.434 78.77L116.63 78.896C116.523 79.1527 116.357 79.3603 116.133 79.519C115.909 79.673 115.641 79.75 115.328 79.75C115.02 79.75 114.745 79.6777 114.502 79.533C114.26 79.3837 114.071 79.1853 113.935 78.938C113.8 78.6907 113.732 78.4107 113.732 78.098C113.732 77.79 113.805 77.5193 113.949 77.286C114.094 77.048 114.297 76.8613 114.558 76.726C114.824 76.5907 115.135 76.523 115.489 76.523ZM115.489 77.328C115.335 77.328 115.198 77.363 115.076 77.433C114.955 77.503 114.859 77.5987 114.789 77.72C114.719 77.8413 114.684 77.9813 114.684 78.14C114.684 78.2987 114.719 78.441 114.789 78.567C114.859 78.693 114.955 78.791 115.076 78.861C115.198 78.931 115.335 78.966 115.489 78.966C115.643 78.966 115.781 78.931 115.902 78.861C116.024 78.791 116.119 78.693 116.189 78.567C116.264 78.441 116.301 78.2987 116.301 78.14C116.301 77.9813 116.264 77.8413 116.189 77.72C116.119 77.5987 116.024 77.503 115.902 77.433C115.781 77.363 115.643 77.328 115.489 77.328Z" fill="black"/>
<path d="M111.436 109.584C111.146 109.584 110.885 109.542 110.652 109.458C110.418 109.369 110.222 109.246 110.064 109.087C109.91 108.924 109.802 108.732 109.742 108.513L110.624 108.254C110.656 108.31 110.701 108.38 110.757 108.464C110.813 108.543 110.89 108.611 110.988 108.667C111.086 108.723 111.214 108.751 111.373 108.751C111.606 108.751 111.79 108.688 111.926 108.562C112.066 108.431 112.136 108.263 112.136 108.058C112.136 107.918 112.101 107.794 112.031 107.687C111.961 107.58 111.846 107.498 111.688 107.442C111.534 107.381 111.331 107.351 111.079 107.351H110.785V106.7H111.044C111.324 106.7 111.587 106.735 111.835 106.805C112.082 106.87 112.299 106.968 112.486 107.099C112.677 107.225 112.826 107.379 112.934 107.561C113.041 107.738 113.095 107.941 113.095 108.17C113.095 108.464 113.018 108.718 112.864 108.933C112.71 109.143 112.507 109.304 112.255 109.416C112.003 109.528 111.73 109.584 111.436 109.584ZM110.785 107.176V106.567H111.079C111.405 106.567 111.648 106.511 111.807 106.399C111.965 106.287 112.045 106.133 112.045 105.937C112.045 105.825 112.017 105.725 111.961 105.636C111.905 105.547 111.825 105.477 111.723 105.426C111.62 105.375 111.501 105.349 111.366 105.349C111.277 105.349 111.186 105.365 111.093 105.398C110.999 105.426 110.913 105.475 110.834 105.545C110.759 105.61 110.698 105.706 110.652 105.832L109.784 105.573C109.849 105.344 109.961 105.153 110.12 104.999C110.283 104.84 110.477 104.721 110.701 104.642C110.925 104.558 111.156 104.516 111.394 104.516C111.697 104.516 111.97 104.574 112.213 104.691C112.455 104.803 112.647 104.959 112.787 105.16C112.927 105.361 112.997 105.592 112.997 105.853C112.997 106.077 112.943 106.271 112.836 106.434C112.728 106.597 112.581 106.735 112.395 106.847C112.213 106.959 112.005 107.043 111.772 107.099C111.538 107.15 111.296 107.176 111.044 107.176H110.785ZM115.409 109.584C115.185 109.584 114.954 109.547 114.716 109.472C114.483 109.397 114.271 109.285 114.079 109.136C113.893 108.987 113.755 108.802 113.666 108.583L114.541 108.324C114.644 108.473 114.765 108.583 114.905 108.653C115.05 108.723 115.199 108.758 115.353 108.758C115.596 108.758 115.792 108.686 115.941 108.541C116.095 108.392 116.172 108.193 116.172 107.946C116.172 107.717 116.098 107.526 115.948 107.372C115.804 107.218 115.61 107.141 115.367 107.141C115.223 107.141 115.09 107.174 114.968 107.239C114.847 107.304 114.754 107.381 114.688 107.47L113.827 107.281L114.121 104.6H116.893V105.468H114.94L114.8 106.644C114.926 106.574 115.066 106.518 115.22 106.476C115.374 106.429 115.54 106.408 115.717 106.413C115.983 106.413 116.226 106.478 116.445 106.609C116.665 106.735 116.837 106.91 116.963 107.134C117.094 107.353 117.159 107.61 117.159 107.904C117.159 108.235 117.085 108.527 116.935 108.779C116.786 109.031 116.581 109.229 116.319 109.374C116.058 109.514 115.755 109.584 115.409 109.584Z" fill="black"/>
<path d="M111.562 137.584C111.23 137.584 110.948 137.526 110.715 137.409C110.486 137.288 110.297 137.122 110.148 136.912C110.003 136.702 109.896 136.459 109.826 136.184C109.76 135.904 109.728 135.603 109.728 135.281C109.728 134.908 109.767 134.555 109.847 134.224C109.926 133.888 110.045 133.592 110.204 133.335C110.367 133.078 110.575 132.878 110.827 132.733C111.079 132.588 111.382 132.516 111.737 132.516C111.993 132.516 112.243 132.553 112.486 132.628C112.733 132.703 112.955 132.81 113.151 132.95L112.675 133.65C112.53 133.547 112.374 133.473 112.206 133.426C112.042 133.379 111.891 133.356 111.751 133.356C111.391 133.356 111.109 133.515 110.904 133.832C110.698 134.149 110.6 134.651 110.61 135.337L110.421 135.204C110.528 134.947 110.694 134.742 110.918 134.588C111.142 134.434 111.408 134.357 111.716 134.357C112.028 134.357 112.304 134.429 112.542 134.574C112.784 134.719 112.973 134.917 113.109 135.169C113.249 135.416 113.319 135.694 113.319 136.002C113.319 136.305 113.246 136.578 113.102 136.821C112.957 137.059 112.752 137.246 112.486 137.381C112.224 137.516 111.916 137.584 111.562 137.584ZM111.562 136.772C111.716 136.772 111.853 136.737 111.975 136.667C112.096 136.597 112.192 136.501 112.262 136.38C112.332 136.259 112.367 136.119 112.367 135.96C112.367 135.801 112.332 135.661 112.262 135.54C112.192 135.414 112.096 135.316 111.975 135.246C111.853 135.171 111.716 135.134 111.562 135.134C111.408 135.134 111.268 135.171 111.142 135.246C111.02 135.316 110.925 135.414 110.855 135.54C110.785 135.661 110.75 135.801 110.75 135.96C110.75 136.119 110.785 136.259 110.855 136.38C110.925 136.501 111.02 136.597 111.142 136.667C111.268 136.737 111.408 136.772 111.562 136.772ZM115.797 137.584C115.4 137.584 115.05 137.477 114.747 137.262C114.444 137.043 114.206 136.744 114.033 136.366C113.86 135.983 113.774 135.545 113.774 135.05C113.774 134.555 113.86 134.119 114.033 133.741C114.206 133.358 114.441 133.06 114.74 132.845C115.043 132.626 115.393 132.516 115.79 132.516C116.187 132.516 116.537 132.626 116.84 132.845C117.148 133.06 117.388 133.358 117.561 133.741C117.734 134.119 117.82 134.555 117.82 135.05C117.82 135.545 117.734 135.983 117.561 136.366C117.388 136.744 117.15 137.043 116.847 137.262C116.544 137.477 116.194 137.584 115.797 137.584ZM115.797 136.716C116.007 136.716 116.194 136.646 116.357 136.506C116.525 136.361 116.656 136.165 116.749 135.918C116.842 135.666 116.889 135.377 116.889 135.05C116.889 134.723 116.842 134.434 116.749 134.182C116.656 133.93 116.525 133.734 116.357 133.594C116.194 133.449 116.005 133.377 115.79 133.377C115.58 133.377 115.393 133.449 115.23 133.594C115.067 133.734 114.938 133.93 114.845 134.182C114.756 134.434 114.712 134.723 114.712 135.05C114.712 135.377 114.756 135.666 114.845 135.918C114.938 136.165 115.067 136.361 115.23 136.506C115.398 136.646 115.587 136.716 115.797 136.716Z" fill="black"/>
<path d="M110.834 165.5V161.111L110.925 160.6H111.751V165.5H110.834ZM109.798 162.147V161.279C109.914 161.288 110.04 161.26 110.176 161.195C110.311 161.125 110.444 161.036 110.575 160.929C110.71 160.817 110.827 160.705 110.925 160.593L111.534 161.188C111.366 161.375 111.188 161.545 111.002 161.699C110.815 161.848 110.621 161.965 110.421 162.049C110.225 162.133 110.017 162.166 109.798 162.147ZM114.69 165.584C114.293 165.584 113.943 165.477 113.64 165.262C113.336 165.043 113.098 164.744 112.926 164.366C112.753 163.983 112.667 163.545 112.667 163.05C112.667 162.555 112.753 162.119 112.926 161.741C113.098 161.358 113.334 161.06 113.633 160.845C113.936 160.626 114.286 160.516 114.683 160.516C115.079 160.516 115.429 160.626 115.733 160.845C116.041 161.06 116.281 161.358 116.454 161.741C116.626 162.119 116.713 162.555 116.713 163.05C116.713 163.545 116.626 163.983 116.454 164.366C116.281 164.744 116.043 165.043 115.74 165.262C115.436 165.477 115.086 165.584 114.69 165.584ZM114.69 164.716C114.9 164.716 115.086 164.646 115.25 164.506C115.418 164.361 115.548 164.165 115.642 163.918C115.735 163.666 115.782 163.377 115.782 163.05C115.782 162.723 115.735 162.434 115.642 162.182C115.548 161.93 115.418 161.734 115.25 161.594C115.086 161.449 114.897 161.377 114.683 161.377C114.473 161.377 114.286 161.449 114.123 161.594C113.959 161.734 113.831 161.93 113.738 162.182C113.649 162.434 113.605 162.723 113.605 163.05C113.605 163.377 113.649 163.666 113.738 163.918C113.831 164.165 113.959 164.361 114.123 164.506C114.291 164.646 114.48 164.716 114.69 164.716ZM119.012 165.584C118.788 165.584 118.557 165.547 118.319 165.472C118.085 165.397 117.873 165.285 117.682 165.136C117.495 164.987 117.357 164.802 117.269 164.583L118.144 164.324C118.246 164.473 118.368 164.583 118.508 164.653C118.652 164.723 118.802 164.758 118.956 164.758C119.198 164.758 119.394 164.686 119.544 164.541C119.698 164.392 119.775 164.193 119.775 163.946C119.775 163.717 119.7 163.526 119.551 163.372C119.406 163.218 119.212 163.141 118.97 163.141C118.825 163.141 118.692 163.174 118.571 163.239C118.449 163.304 118.356 163.381 118.291 163.47L117.43 163.281L117.724 160.6H120.496V161.468H118.543L118.403 162.644C118.529 162.574 118.669 162.518 118.823 162.476C118.977 162.429 119.142 162.408 119.32 162.413C119.586 162.413 119.828 162.478 120.048 162.609C120.267 162.735 120.44 162.91 120.566 163.134C120.696 163.353 120.762 163.61 120.762 163.904C120.762 164.235 120.687 164.527 120.538 164.779C120.388 165.031 120.183 165.229 119.922 165.374C119.66 165.514 119.357 165.584 119.012 165.584Z" fill="black"/>
<path d="M111.52 193.584C111.296 193.584 111.065 193.547 110.827 193.472C110.593 193.397 110.381 193.285 110.19 193.136C110.003 192.987 109.865 192.802 109.777 192.583L110.652 192.324C110.754 192.473 110.876 192.583 111.016 192.653C111.16 192.723 111.31 192.758 111.464 192.758C111.706 192.758 111.902 192.686 112.052 192.541C112.206 192.392 112.283 192.193 112.283 191.946C112.283 191.717 112.208 191.526 112.059 191.372C111.914 191.218 111.72 191.141 111.478 191.141C111.333 191.141 111.2 191.174 111.079 191.239C110.957 191.304 110.864 191.381 110.799 191.47L109.938 191.281L110.232 188.6H113.004V189.468H111.051L110.911 190.644C111.037 190.574 111.177 190.518 111.331 190.476C111.485 190.429 111.65 190.408 111.828 190.413C112.094 190.413 112.336 190.478 112.556 190.609C112.775 190.735 112.948 190.91 113.074 191.134C113.204 191.353 113.27 191.61 113.27 191.904C113.27 192.235 113.195 192.527 113.046 192.779C112.896 193.031 112.691 193.229 112.43 193.374C112.168 193.514 111.865 193.584 111.52 193.584ZM115.804 193.584C115.407 193.584 115.057 193.477 114.754 193.262C114.451 193.043 114.213 192.744 114.04 192.366C113.867 191.983 113.781 191.545 113.781 191.05C113.781 190.555 113.867 190.119 114.04 189.741C114.213 189.358 114.448 189.06 114.747 188.845C115.05 188.626 115.4 188.516 115.797 188.516C116.194 188.516 116.544 188.626 116.847 188.845C117.155 189.06 117.395 189.358 117.568 189.741C117.741 190.119 117.827 190.555 117.827 191.05C117.827 191.545 117.741 191.983 117.568 192.366C117.395 192.744 117.157 193.043 116.854 193.262C116.551 193.477 116.201 193.584 115.804 193.584ZM115.804 192.716C116.014 192.716 116.201 192.646 116.364 192.506C116.532 192.361 116.663 192.165 116.756 191.918C116.849 191.666 116.896 191.377 116.896 191.05C116.896 190.723 116.849 190.434 116.756 190.182C116.663 189.93 116.532 189.734 116.364 189.594C116.201 189.449 116.012 189.377 115.797 189.377C115.587 189.377 115.4 189.449 115.237 189.594C115.074 189.734 114.945 189.93 114.852 190.182C114.763 190.434 114.719 190.723 114.719 191.05C114.719 191.377 114.763 191.666 114.852 191.918C114.945 192.165 115.074 192.361 115.237 192.506C115.405 192.646 115.594 192.716 115.804 192.716Z" fill="black"/>
</g>
<rect x="23.5" y="31.5" width="203" height="187" rx="7.5" stroke="#C8BBFF"/>
<path d="M188.2 81.5V80.534H185.918V79.771L188.088 76.6H189.103V79.715H189.957V80.534H189.103V81.5H188.2ZM186.905 79.715H188.2V77.818L186.905 79.715ZM190.523 81.5V80.793C190.523 80.6577 190.565 80.5083 190.649 80.345C190.733 80.1817 190.849 80.0183 190.999 79.855C191.148 79.6917 191.323 79.54 191.524 79.4L192.266 78.868C192.368 78.798 192.464 78.7187 192.553 78.63C192.646 78.5413 192.721 78.4457 192.777 78.343C192.837 78.2357 192.868 78.133 192.868 78.035C192.868 77.9137 192.837 77.804 192.777 77.706C192.721 77.608 192.637 77.531 192.525 77.475C192.413 77.419 192.275 77.391 192.112 77.391C191.972 77.391 191.846 77.419 191.734 77.475C191.626 77.531 191.538 77.6057 191.468 77.699C191.398 77.7923 191.349 77.8927 191.321 78L190.334 77.832C190.38 77.5987 190.481 77.3817 190.635 77.181C190.789 76.9803 190.989 76.8193 191.237 76.698C191.489 76.572 191.773 76.509 192.091 76.509C192.455 76.509 192.767 76.5743 193.029 76.705C193.29 76.8357 193.491 77.0153 193.631 77.244C193.775 77.468 193.848 77.7293 193.848 78.028C193.848 78.3313 193.764 78.602 193.596 78.84C193.432 79.0733 193.206 79.2927 192.917 79.498L192.252 79.981C192.116 80.0743 192 80.177 191.902 80.289C191.804 80.401 191.729 80.5247 191.678 80.66H193.911V81.5H190.523Z" fill="black"/>
<path d="M186.093 109.5V108.793C186.093 108.658 186.135 108.508 186.219 108.345C186.303 108.182 186.42 108.018 186.569 107.855C186.718 107.692 186.893 107.54 187.094 107.4L187.836 106.868C187.939 106.798 188.034 106.719 188.123 106.63C188.216 106.541 188.291 106.446 188.347 106.343C188.408 106.236 188.438 106.133 188.438 106.035C188.438 105.914 188.408 105.804 188.347 105.706C188.291 105.608 188.207 105.531 188.095 105.475C187.983 105.419 187.845 105.391 187.682 105.391C187.542 105.391 187.416 105.419 187.304 105.475C187.197 105.531 187.108 105.606 187.038 105.699C186.968 105.792 186.919 105.893 186.891 106L185.904 105.832C185.951 105.599 186.051 105.382 186.205 105.181C186.359 104.98 186.56 104.819 186.807 104.698C187.059 104.572 187.344 104.509 187.661 104.509C188.025 104.509 188.338 104.574 188.599 104.705C188.86 104.836 189.061 105.015 189.201 105.244C189.346 105.468 189.418 105.729 189.418 106.028C189.418 106.331 189.334 106.602 189.166 106.84C189.003 107.073 188.776 107.293 188.487 107.498L187.822 107.981C187.687 108.074 187.57 108.177 187.472 108.289C187.374 108.401 187.299 108.525 187.248 108.66H189.481V109.5H186.093ZM191.757 109.584C191.467 109.584 191.206 109.542 190.973 109.458C190.739 109.369 190.543 109.246 190.385 109.087C190.231 108.924 190.123 108.732 190.063 108.513L190.945 108.254C190.977 108.31 191.022 108.38 191.078 108.464C191.134 108.543 191.211 108.611 191.309 108.667C191.407 108.723 191.535 108.751 191.694 108.751C191.927 108.751 192.111 108.688 192.247 108.562C192.387 108.431 192.457 108.263 192.457 108.058C192.457 107.918 192.422 107.794 192.352 107.687C192.282 107.58 192.167 107.498 192.009 107.442C191.855 107.381 191.652 107.351 191.4 107.351H191.106V106.7H191.365C191.645 106.7 191.908 106.735 192.156 106.805C192.403 106.87 192.62 106.968 192.807 107.099C192.998 107.225 193.147 107.379 193.255 107.561C193.362 107.738 193.416 107.941 193.416 108.17C193.416 108.464 193.339 108.718 193.185 108.933C193.031 109.143 192.828 109.304 192.576 109.416C192.324 109.528 192.051 109.584 191.757 109.584ZM191.106 107.176V106.567H191.4C191.726 106.567 191.969 106.511 192.128 106.399C192.286 106.287 192.366 106.133 192.366 105.937C192.366 105.825 192.338 105.725 192.282 105.636C192.226 105.547 192.146 105.477 192.044 105.426C191.941 105.375 191.822 105.349 191.687 105.349C191.598 105.349 191.507 105.365 191.414 105.398C191.32 105.426 191.234 105.475 191.155 105.545C191.08 105.61 191.019 105.706 190.973 105.832L190.105 105.573C190.17 105.344 190.282 105.153 190.441 104.999C190.604 104.84 190.798 104.721 191.022 104.642C191.246 104.558 191.477 104.516 191.715 104.516C192.018 104.516 192.291 104.574 192.534 104.691C192.776 104.803 192.968 104.959 193.108 105.16C193.248 105.361 193.318 105.592 193.318 105.853C193.318 106.077 193.264 106.271 193.157 106.434C193.049 106.597 192.902 106.735 192.716 106.847C192.534 106.959 192.326 107.043 192.093 107.099C191.859 107.15 191.617 107.176 191.365 107.176H191.106Z" fill="black"/>
<path d="M187.829 137.584C187.498 137.584 187.215 137.526 186.982 137.409C186.753 137.288 186.564 137.122 186.415 136.912C186.27 136.702 186.163 136.459 186.093 136.184C186.028 135.904 185.995 135.603 185.995 135.281C185.995 134.908 186.035 134.555 186.114 134.224C186.193 133.888 186.312 133.592 186.471 133.335C186.634 133.078 186.842 132.878 187.094 132.733C187.346 132.588 187.649 132.516 188.004 132.516C188.261 132.516 188.51 132.553 188.753 132.628C189 132.703 189.222 132.81 189.418 132.95L188.942 133.65C188.797 133.547 188.641 133.473 188.473 133.426C188.31 133.379 188.158 133.356 188.018 133.356C187.659 133.356 187.376 133.515 187.171 133.832C186.966 134.149 186.868 134.651 186.877 135.337L186.688 135.204C186.795 134.947 186.961 134.742 187.185 134.588C187.409 134.434 187.675 134.357 187.983 134.357C188.296 134.357 188.571 134.429 188.809 134.574C189.052 134.719 189.241 134.917 189.376 135.169C189.516 135.416 189.586 135.694 189.586 136.002C189.586 136.305 189.514 136.578 189.369 136.821C189.224 137.059 189.019 137.246 188.753 137.381C188.492 137.516 188.184 137.584 187.829 137.584ZM187.829 136.772C187.983 136.772 188.121 136.737 188.242 136.667C188.363 136.597 188.459 136.501 188.529 136.38C188.599 136.259 188.634 136.119 188.634 135.96C188.634 135.801 188.599 135.661 188.529 135.54C188.459 135.414 188.363 135.316 188.242 135.246C188.121 135.171 187.983 135.134 187.829 135.134C187.675 135.134 187.535 135.171 187.409 135.246C187.288 135.316 187.192 135.414 187.122 135.54C187.052 135.661 187.017 135.801 187.017 135.96C187.017 136.119 187.052 136.259 187.122 136.38C187.192 136.501 187.288 136.597 187.409 136.667C187.535 136.737 187.675 136.772 187.829 136.772ZM192.065 137.584C191.668 137.584 191.318 137.477 191.015 137.262C190.711 137.043 190.473 136.744 190.301 136.366C190.128 135.983 190.042 135.545 190.042 135.05C190.042 134.555 190.128 134.119 190.301 133.741C190.473 133.358 190.709 133.06 191.008 132.845C191.311 132.626 191.661 132.516 192.058 132.516C192.454 132.516 192.804 132.626 193.108 132.845C193.416 133.06 193.656 133.358 193.829 133.741C194.001 134.119 194.088 134.555 194.088 135.05C194.088 135.545 194.001 135.983 193.829 136.366C193.656 136.744 193.418 137.043 193.115 137.262C192.811 137.477 192.461 137.584 192.065 137.584ZM192.065 136.716C192.275 136.716 192.461 136.646 192.625 136.506C192.793 136.361 192.923 136.165 193.017 135.918C193.11 135.666 193.157 135.377 193.157 135.05C193.157 134.723 193.11 134.434 193.017 134.182C192.923 133.93 192.793 133.734 192.625 133.594C192.461 133.449 192.272 133.377 192.058 133.377C191.848 133.377 191.661 133.449 191.498 133.594C191.334 133.734 191.206 133.93 191.113 134.182C191.024 134.434 190.98 134.723 190.98 135.05C190.98 135.377 191.024 135.666 191.113 135.918C191.206 136.165 191.334 136.361 191.498 136.506C191.666 136.646 191.855 136.716 192.065 136.716Z" fill="black"/>
<path d="M187.101 165.5V161.111L187.192 160.6H188.018V165.5H187.101ZM186.065 162.147V161.279C186.182 161.288 186.308 161.26 186.443 161.195C186.578 161.125 186.711 161.036 186.842 160.929C186.977 160.817 187.094 160.705 187.192 160.593L187.801 161.188C187.633 161.375 187.456 161.545 187.269 161.699C187.082 161.848 186.889 161.965 186.688 162.049C186.492 162.133 186.284 162.166 186.065 162.147ZM190.957 165.584C190.56 165.584 190.21 165.477 189.907 165.262C189.604 165.043 189.366 164.744 189.193 164.366C189.02 163.983 188.934 163.545 188.934 163.05C188.934 162.555 189.02 162.119 189.193 161.741C189.366 161.358 189.601 161.06 189.9 160.845C190.203 160.626 190.553 160.516 190.95 160.516C191.347 160.516 191.697 160.626 192 160.845C192.308 161.06 192.548 161.358 192.721 161.741C192.894 162.119 192.98 162.555 192.98 163.05C192.98 163.545 192.894 163.983 192.721 164.366C192.548 164.744 192.31 165.043 192.007 165.262C191.704 165.477 191.354 165.584 190.957 165.584ZM190.957 164.716C191.167 164.716 191.354 164.646 191.517 164.506C191.685 164.361 191.816 164.165 191.909 163.918C192.002 163.666 192.049 163.377 192.049 163.05C192.049 162.723 192.002 162.434 191.909 162.182C191.816 161.93 191.685 161.734 191.517 161.594C191.354 161.449 191.165 161.377 190.95 161.377C190.74 161.377 190.553 161.449 190.39 161.594C190.227 161.734 190.098 161.93 190.005 162.182C189.916 162.434 189.872 162.723 189.872 163.05C189.872 163.377 189.916 163.666 190.005 163.918C190.098 164.165 190.227 164.361 190.39 164.506C190.558 164.646 190.747 164.716 190.957 164.716ZM195.279 165.584C195.055 165.584 194.824 165.547 194.586 165.472C194.353 165.397 194.14 165.285 193.949 165.136C193.762 164.987 193.625 164.802 193.536 164.583L194.411 164.324C194.514 164.473 194.635 164.583 194.775 164.653C194.92 164.723 195.069 164.758 195.223 164.758C195.466 164.758 195.662 164.686 195.811 164.541C195.965 164.392 196.042 164.193 196.042 163.946C196.042 163.717 195.967 163.526 195.818 163.372C195.673 163.218 195.48 163.141 195.237 163.141C195.092 163.141 194.959 163.174 194.838 163.239C194.717 163.304 194.623 163.381 194.558 163.47L193.697 163.281L193.991 160.6H196.763V161.468H194.81L194.67 162.644C194.796 162.574 194.936 162.518 195.09 162.476C195.244 162.429 195.41 162.408 195.587 162.413C195.853 162.413 196.096 162.478 196.315 162.609C196.534 162.735 196.707 162.91 196.833 163.134C196.964 163.353 197.029 163.61 197.029 163.904C197.029 164.235 196.954 164.527 196.805 164.779C196.656 165.031 196.45 165.229 196.189 165.374C195.928 165.514 195.624 165.584 195.279 165.584Z" fill="black"/>
<path d="M186.387 193.5L188.403 189.391L189.418 189.307L187.451 193.5H186.387ZM185.967 189.475V188.6H189.418V189.307L188.445 189.475H185.967ZM191.761 193.584C191.369 193.584 191.035 193.528 190.76 193.416C190.484 193.299 190.274 193.141 190.13 192.94C189.99 192.735 189.92 192.497 189.92 192.226C189.92 191.937 189.99 191.682 190.13 191.463C190.274 191.244 190.484 191.071 190.76 190.945C191.035 190.819 191.369 190.758 191.761 190.763C192.157 190.758 192.493 190.819 192.769 190.945C193.044 191.071 193.254 191.244 193.399 191.463C193.543 191.682 193.616 191.937 193.616 192.226C193.616 192.497 193.543 192.735 193.399 192.94C193.254 193.141 193.044 193.299 192.769 193.416C192.493 193.528 192.157 193.584 191.761 193.584ZM191.761 192.786C192.017 192.786 192.227 192.723 192.391 192.597C192.554 192.466 192.636 192.301 192.636 192.1C192.636 191.881 192.554 191.703 192.391 191.568C192.227 191.433 192.017 191.365 191.761 191.365C191.593 191.365 191.443 191.395 191.313 191.456C191.187 191.517 191.086 191.603 191.012 191.715C190.937 191.827 190.9 191.955 190.9 192.1C190.9 192.235 190.937 192.354 191.012 192.457C191.086 192.56 191.187 192.641 191.313 192.702C191.443 192.758 191.593 192.786 191.761 192.786ZM191.761 191.141C191.411 191.141 191.11 191.087 190.858 190.98C190.606 190.868 190.412 190.716 190.277 190.525C190.146 190.329 190.081 190.103 190.081 189.846C190.081 189.585 190.146 189.354 190.277 189.153C190.412 188.952 190.606 188.796 190.858 188.684C191.11 188.572 191.411 188.516 191.761 188.516C192.115 188.516 192.419 188.572 192.671 188.684C192.923 188.796 193.116 188.952 193.252 189.153C193.387 189.354 193.455 189.585 193.455 189.846C193.455 190.103 193.387 190.329 193.252 190.525C193.116 190.716 192.923 190.868 192.671 190.98C192.419 191.087 192.115 191.141 191.761 191.141ZM191.761 190.602C191.985 190.602 192.167 190.541 192.307 190.42C192.451 190.299 192.524 190.145 192.524 189.958C192.524 189.757 192.451 189.596 192.307 189.475C192.167 189.349 191.985 189.286 191.761 189.286C191.541 189.286 191.362 189.349 191.222 189.475C191.082 189.596 191.012 189.757 191.012 189.958C191.012 190.145 191.082 190.299 191.222 190.42C191.362 190.541 191.541 190.602 191.761 190.602Z" fill="black"/>
<rect x="181.514" y="185.711" width="7.98879" height="15.9776" transform="rotate(-21.1529 181.514 185.711)" fill="#8278FF"/>
<path d="M186.394 203.85L197.565 199.527C198.389 199.208 199.315 199.618 199.634 200.442L218.204 248.435L204.05 253.911L185.48 205.919C185.161 205.095 185.57 204.168 186.394 203.85Z" fill="#8278FF" stroke="#8278FF" stroke-width="0.8"/>
<circle cx="170.444" cy="147.878" r="42.8726" transform="rotate(-21.1529 170.444 147.878)" fill="#DED7FF" stroke="#C8BBFF" stroke-width="0.8"/>
<g clip-path="url(#clip2_149_999)">
<rect x="125.945" y="128.494" width="83.2592" height="84.6012" transform="rotate(-21.1529 125.945 128.494)" fill="white"/>
<path d="M488.218 63.3256L177.058 183.723L178.674 187.897L489.833 67.4999L488.218 63.3256Z" fill="#8278FF"/>
<path d="M455.384 90.2651L181.849 196.104L183.464 200.279L456.999 94.4396L455.384 90.2651Z" fill="#8278FF"/>
<g clip-path="url(#clip3_149_999)">
<path d="M170 135C161.31 135 152.62 139.33 146 148C159.25 165.32 180.75 165.32 194 148C187.38 139.33 178.69 135 170 135ZM170 158C168.022 158 166.089 157.414 164.444 156.315C162.8 155.216 161.518 153.654 160.761 151.827C160.004 150 159.806 147.989 160.192 146.049C160.578 144.109 161.53 142.327 162.929 140.929C164.327 139.53 166.109 138.578 168.049 138.192C169.989 137.806 172 138.004 173.827 138.761C175.654 139.518 177.216 140.8 178.315 142.444C179.414 144.089 180 146.022 180 148C180 149.313 179.741 150.614 179.239 151.827C178.736 153.04 178 154.142 177.071 155.071C176.142 156 175.04 156.736 173.827 157.239C172.614 157.741 171.313 158 170 158Z" fill="#DED7FF"/>
<path d="M176 148C176 149.187 175.648 150.347 174.989 151.333C174.33 152.32 173.392 153.089 172.296 153.543C171.2 153.997 169.993 154.116 168.829 153.885C167.666 153.653 166.596 153.082 165.757 152.243C164.918 151.404 164.347 150.334 164.115 149.171C163.884 148.007 164.003 146.8 164.457 145.704C164.911 144.608 165.68 143.67 166.667 143.011C167.653 142.352 168.813 142 170 142C170.538 141.997 171.073 142.071 171.59 142.22C171.163 142.797 170.958 143.509 171.011 144.225C171.063 144.941 171.371 145.614 171.879 146.122C172.386 146.63 173.058 146.94 173.774 146.995C174.49 147.049 175.202 146.845 175.78 146.42C175.93 146.933 176.004 147.465 176 148Z" fill="#8278FF"/>
</g>
</g>
<rect x="126.894" y="128.555" width="67.2829" height="67.2829" rx="33.6415" transform="rotate(-21.1529 126.894 128.555)" stroke="#C8BBFF" stroke-width="0.8"/>
</g>
<defs>
<clipPath id="clip0_149_999">
<rect width="204" height="188" fill="white" transform="translate(23 31)"/>
</clipPath>
<clipPath id="clip1_149_999">
<rect x="23" y="31" width="204" height="188" rx="8" fill="white"/>
</clipPath>
<clipPath id="clip2_149_999">
<rect x="126.377" y="128.327" width="68.0829" height="68.0829" rx="34.0415" transform="rotate(-21.1529 126.377 128.327)" fill="white"/>
</clipPath>
<clipPath id="clip3_149_999">
<rect width="48" height="26" fill="white" transform="translate(146 135)"/>
</clipPath>
</defs>
</svg>
